<svg viewBox="0 0 26 26" fill="none" xmlns="http://www.w3.org/2000/svg">
<rect width="20" height="20" x="3" y="3" rx="2" fill="#0080A8"/>
<path d="M15.9635 9.01807L11.06399 9.01807C10.51167 9.018 10.06393 9.46574 10.064 10.01806C10.064 10.57031 10.51174 11.01805 11.06399 11.01805L13.5593 11.00801L9.35689 15.2104C8.96642 15.6009 8.96635 16.2341 9.35689 16.6247C9.74742 17.0152 10.38064 17.0151 10.7711 16.6247L14.9735 12.42222L14.9635 14.9176C14.9635 15.4698 15.4112 15.9175 15.9635 15.9175C16.5158 15.9176 16.9635 15.4699 16.9635 14.9176V10.01806C16.9635 9.46574 16.5158 9.018 15.9635 9.01807Z" fill="#FFFFFF"/>
</svg>
