<svg width="320" height="160" xmlns="http://www.w3.org/2000/svg"><g fill="none" fill-rule="evenodd"><path fill="#0075DB" d="M0 160h320V0H0z"/><g opacity=".387" stroke="#0057A3" stroke-width="2"><path d="M271.06 25.608a8.692 8.692 0 0 0 7.726 15.571l-7.726-15.571zm-52.643 24.823l-13.736-1.253 4.272 13.114z" stroke-linejoin="round"/><path stroke-linecap="round" stroke-linejoin="round" d="M128.589 23.324l4.556 3.252-3.252 4.557 4.623 3.654-3.253 4.55 4.587 3.441m72.17 55.952l.612-4.476 4.476.611.873-4.676 4.472.614.734-4.57"/><path d="M154.047 75.396a5.652 5.652 0 0 0 11.278-.74l-11.278.74z" stroke-linejoin="round"/><path stroke-linecap="round" stroke-linejoin="round" d="M302.64 133.171h5.312l2.656 4.6-2.656 4.6h-5.312l-2.655-4.6zM4.012 16.221l3.812-2.166 2.165 3.812 4.119-2.08 2.16 3.81 3.957-2.126"/><path stroke-linejoin="round" d="M225.932 4.836l-4.24 8.94 6.276 9.856 4.241-8.94zm-47.375 147.436a8.753 8.753 0 0 0 2.359-12.153 8.754 8.754 0 0 0-12.153-2.36l9.794 14.513zM31.026 140.818l-8.313-6.603-6.603 8.314 8.313 6.602z"/><path stroke-linecap="round" stroke-linejoin="round" d="M82.233 107.053l-1.427 5.325-5.323 1.425-3.896-3.897 1.426-5.323 5.323-1.425zm-40.186-8.811l-.77-5.053 5.051-.771-.55-5.353 5.049-.766-.667-5.194"/><path d="M19.157 69.135a4.486 4.486 0 1 0-6.264-6.422 4.486 4.486 0 0 0 6.264 6.422z"/><path stroke-linecap="round" stroke-linejoin="round" d="M99.044 66.099l2.868-2.4 2.4 2.867 3.14-2.376 2.395 2.867 2.995-2.388"/><path stroke-linejoin="round" d="M103.097 146.743l6-6.386-8.236-2.994zM87.009 27.98l10.826-5.02 1.779-13.98L88.788 14zm54.734 68.108l-11.465 1.282 1.282 11.465 11.465-1.282zM53.665 30.865l-9.273 1.704 1.703 9.273 9.274-1.704zm250.747 29.972l-9.273 1.704 1.704 9.273 9.273-1.704zm-42.837 51.299l-9.518-1.738-7.715 8.426 9.517 1.738z"/><path stroke-linecap="round" stroke-linejoin="round" d="M37.79 83.248l.967-3.612 3.613.967 1.202-3.748 3.61.97 1.077-3.677M163.215 17.72l6.133 3.54v7.082l-6.133 3.541-6.133-3.54V21.26zm50.955 87.391l1.056-7.735 7.735 1.055 1.507-8.078 7.728 1.061 1.268-7.897"/></g></g></svg>